<mxfile host="app.diagrams.net" agent="Mozilla/5.0 (Windows NT 10.0; Win64; x64) AppleWebKit/537.36 (KHTML, like Gecko) Chrome/133.0.0.0 Safari/537.36" version="26.0.16">
  <diagram name="第 1 页" id="SgOGS0mJxwg2nIIm9jTP">
    <mxGraphModel dx="989" dy="509" grid="1" gridSize="5" guides="1" tooltips="1" connect="1" arrows="1" fold="1" page="1" pageScale="1" pageWidth="827" pageHeight="1169" math="0" shadow="0">
      <root>
        <mxCell id="0" />
        <mxCell id="1" parent="0" />
        <mxCell id="tlXR0ImK2c8rhLXpDkq9-10" value="" style="endArrow=classic;startArrow=classic;html=1;rounded=0;" edge="1" parent="1">
          <mxGeometry width="50" height="50" relative="1" as="geometry">
            <mxPoint x="45" y="330" as="sourcePoint" />
            <mxPoint x="45" y="85" as="targetPoint" />
          </mxGeometry>
        </mxCell>
        <mxCell id="tlXR0ImK2c8rhLXpDkq9-102" value="100" style="edgeLabel;html=1;align=center;verticalAlign=middle;resizable=0;points=[];" vertex="1" connectable="0" parent="tlXR0ImK2c8rhLXpDkq9-10">
          <mxGeometry x="0.1111" y="2" relative="1" as="geometry">
            <mxPoint as="offset" />
          </mxGeometry>
        </mxCell>
        <mxCell id="tlXR0ImK2c8rhLXpDkq9-18" value="鞋柜尺寸（外）示意图&lt;br&gt;单位：CM，整体尺寸，包括木板厚度" style="text;html=1;align=center;verticalAlign=middle;resizable=0;points=[];autosize=1;strokeColor=none;fillColor=none;" vertex="1" parent="1">
          <mxGeometry x="85" y="8" width="220" height="45" as="geometry" />
        </mxCell>
        <mxCell id="tlXR0ImK2c8rhLXpDkq9-19" value="" style="shape=link;html=1;rounded=0;" edge="1" parent="1">
          <mxGeometry width="100" relative="1" as="geometry">
            <mxPoint x="60" y="330" as="sourcePoint" />
            <mxPoint x="60" y="85" as="targetPoint" />
          </mxGeometry>
        </mxCell>
        <mxCell id="tlXR0ImK2c8rhLXpDkq9-20" value="" style="shape=link;html=1;rounded=0;" edge="1" parent="1">
          <mxGeometry width="100" relative="1" as="geometry">
            <mxPoint x="421" y="330" as="sourcePoint" />
            <mxPoint x="421" y="85" as="targetPoint" />
          </mxGeometry>
        </mxCell>
        <mxCell id="tlXR0ImK2c8rhLXpDkq9-21" value="" style="shape=link;html=1;rounded=0;" edge="1" parent="1">
          <mxGeometry width="100" relative="1" as="geometry">
            <mxPoint x="420" y="85" as="sourcePoint" />
            <mxPoint x="60" y="85" as="targetPoint" />
          </mxGeometry>
        </mxCell>
        <mxCell id="tlXR0ImK2c8rhLXpDkq9-23" value="" style="shape=link;html=1;rounded=0;" edge="1" parent="1">
          <mxGeometry width="100" relative="1" as="geometry">
            <mxPoint x="340" y="295" as="sourcePoint" />
            <mxPoint x="60" y="295" as="targetPoint" />
          </mxGeometry>
        </mxCell>
        <mxCell id="tlXR0ImK2c8rhLXpDkq9-24" value="" style="endArrow=classic;startArrow=classic;html=1;rounded=0;" edge="1" parent="1">
          <mxGeometry width="50" height="50" relative="1" as="geometry">
            <mxPoint x="60" y="350" as="sourcePoint" />
            <mxPoint x="420" y="350" as="targetPoint" />
          </mxGeometry>
        </mxCell>
        <mxCell id="tlXR0ImK2c8rhLXpDkq9-105" value="160" style="edgeLabel;html=1;align=center;verticalAlign=middle;resizable=0;points=[];" vertex="1" connectable="0" parent="tlXR0ImK2c8rhLXpDkq9-24">
          <mxGeometry x="-0.0079" relative="1" as="geometry">
            <mxPoint as="offset" />
          </mxGeometry>
        </mxCell>
        <mxCell id="tlXR0ImK2c8rhLXpDkq9-28" value="" style="shape=link;html=1;rounded=0;" edge="1" parent="1">
          <mxGeometry width="100" relative="1" as="geometry">
            <mxPoint x="340" y="330" as="sourcePoint" />
            <mxPoint x="341" y="85" as="targetPoint" />
          </mxGeometry>
        </mxCell>
        <mxCell id="tlXR0ImK2c8rhLXpDkq9-29" value="" style="shape=link;html=1;rounded=0;" edge="1" parent="1">
          <mxGeometry width="100" relative="1" as="geometry">
            <mxPoint x="196.57" y="300" as="sourcePoint" />
            <mxPoint x="197" y="85" as="targetPoint" />
          </mxGeometry>
        </mxCell>
        <mxCell id="tlXR0ImK2c8rhLXpDkq9-30" value="" style="shape=link;html=1;rounded=0;" edge="1" parent="1">
          <mxGeometry width="100" relative="1" as="geometry">
            <mxPoint x="420.5" y="130" as="sourcePoint" />
            <mxPoint x="340.5" y="130" as="targetPoint" />
          </mxGeometry>
        </mxCell>
        <mxCell id="tlXR0ImK2c8rhLXpDkq9-31" value="" style="shape=link;html=1;rounded=0;" edge="1" parent="1">
          <mxGeometry width="100" relative="1" as="geometry">
            <mxPoint x="420.5" y="175" as="sourcePoint" />
            <mxPoint x="340.5" y="175" as="targetPoint" />
          </mxGeometry>
        </mxCell>
        <mxCell id="tlXR0ImK2c8rhLXpDkq9-32" value="" style="shape=link;html=1;rounded=0;" edge="1" parent="1">
          <mxGeometry width="100" relative="1" as="geometry">
            <mxPoint x="421" y="260" as="sourcePoint" />
            <mxPoint x="341" y="260" as="targetPoint" />
          </mxGeometry>
        </mxCell>
        <mxCell id="tlXR0ImK2c8rhLXpDkq9-33" value="" style="shape=link;html=1;rounded=0;" edge="1" parent="1">
          <mxGeometry width="100" relative="1" as="geometry">
            <mxPoint x="420.5" y="220" as="sourcePoint" />
            <mxPoint x="340.5" y="220" as="targetPoint" />
          </mxGeometry>
        </mxCell>
        <mxCell id="tlXR0ImK2c8rhLXpDkq9-90" value="" style="rounded=1;whiteSpace=wrap;html=1;rotation=90;" vertex="1" parent="1">
          <mxGeometry x="170" y="188" width="26" height="5" as="geometry" />
        </mxCell>
        <mxCell id="tlXR0ImK2c8rhLXpDkq9-100" value="" style="rounded=1;whiteSpace=wrap;html=1;rotation=90;" vertex="1" parent="1">
          <mxGeometry x="196" y="188" width="26" height="5" as="geometry" />
        </mxCell>
        <mxCell id="tlXR0ImK2c8rhLXpDkq9-104" value="箱子&lt;br&gt;（可拖拉坐）" style="text;html=1;align=center;verticalAlign=middle;resizable=0;points=[];autosize=1;strokeColor=none;fillColor=none;" vertex="1" parent="1">
          <mxGeometry x="333" y="271" width="95" height="45" as="geometry" />
        </mxCell>
        <mxCell id="tlXR0ImK2c8rhLXpDkq9-107" value="" style="endArrow=classic;startArrow=classic;html=1;rounded=0;" edge="1" parent="1">
          <mxGeometry width="50" height="50" relative="1" as="geometry">
            <mxPoint x="45" y="722" as="sourcePoint" />
            <mxPoint x="45" y="477" as="targetPoint" />
          </mxGeometry>
        </mxCell>
        <mxCell id="tlXR0ImK2c8rhLXpDkq9-108" value="100" style="edgeLabel;html=1;align=center;verticalAlign=middle;resizable=0;points=[];" vertex="1" connectable="0" parent="tlXR0ImK2c8rhLXpDkq9-107">
          <mxGeometry x="0.1111" y="2" relative="1" as="geometry">
            <mxPoint as="offset" />
          </mxGeometry>
        </mxCell>
        <mxCell id="tlXR0ImK2c8rhLXpDkq9-109" value="鞋柜尺寸（内）示意图&lt;br&gt;单位：CM，整体尺寸，不包括木板厚度" style="text;html=1;align=center;verticalAlign=middle;resizable=0;points=[];autosize=1;strokeColor=none;fillColor=none;" vertex="1" parent="1">
          <mxGeometry x="80" y="400" width="230" height="45" as="geometry" />
        </mxCell>
        <mxCell id="tlXR0ImK2c8rhLXpDkq9-110" value="" style="shape=link;html=1;rounded=0;" edge="1" parent="1">
          <mxGeometry width="100" relative="1" as="geometry">
            <mxPoint x="60" y="722" as="sourcePoint" />
            <mxPoint x="60" y="477" as="targetPoint" />
          </mxGeometry>
        </mxCell>
        <mxCell id="tlXR0ImK2c8rhLXpDkq9-111" value="" style="shape=link;html=1;rounded=0;" edge="1" parent="1">
          <mxGeometry width="100" relative="1" as="geometry">
            <mxPoint x="421" y="722" as="sourcePoint" />
            <mxPoint x="421" y="477" as="targetPoint" />
          </mxGeometry>
        </mxCell>
        <mxCell id="tlXR0ImK2c8rhLXpDkq9-112" value="" style="shape=link;html=1;rounded=0;" edge="1" parent="1">
          <mxGeometry width="100" relative="1" as="geometry">
            <mxPoint x="420" y="477" as="sourcePoint" />
            <mxPoint x="60" y="477" as="targetPoint" />
          </mxGeometry>
        </mxCell>
        <mxCell id="tlXR0ImK2c8rhLXpDkq9-113" value="" style="shape=link;html=1;rounded=0;" edge="1" parent="1">
          <mxGeometry width="100" relative="1" as="geometry">
            <mxPoint x="340" y="687" as="sourcePoint" />
            <mxPoint x="60" y="687" as="targetPoint" />
          </mxGeometry>
        </mxCell>
        <mxCell id="tlXR0ImK2c8rhLXpDkq9-114" value="" style="endArrow=classic;startArrow=classic;html=1;rounded=0;" edge="1" parent="1">
          <mxGeometry width="50" height="50" relative="1" as="geometry">
            <mxPoint x="60" y="742" as="sourcePoint" />
            <mxPoint x="420" y="742" as="targetPoint" />
          </mxGeometry>
        </mxCell>
        <mxCell id="tlXR0ImK2c8rhLXpDkq9-115" value="160" style="edgeLabel;html=1;align=center;verticalAlign=middle;resizable=0;points=[];" vertex="1" connectable="0" parent="tlXR0ImK2c8rhLXpDkq9-114">
          <mxGeometry x="-0.0079" relative="1" as="geometry">
            <mxPoint as="offset" />
          </mxGeometry>
        </mxCell>
        <mxCell id="tlXR0ImK2c8rhLXpDkq9-116" value="" style="shape=link;html=1;rounded=0;" edge="1" parent="1">
          <mxGeometry width="100" relative="1" as="geometry">
            <mxPoint x="340" y="722" as="sourcePoint" />
            <mxPoint x="341" y="477" as="targetPoint" />
          </mxGeometry>
        </mxCell>
        <mxCell id="tlXR0ImK2c8rhLXpDkq9-117" value="" style="shape=link;html=1;rounded=0;" edge="1" parent="1">
          <mxGeometry width="100" relative="1" as="geometry">
            <mxPoint x="196.57" y="692" as="sourcePoint" />
            <mxPoint x="197" y="477" as="targetPoint" />
          </mxGeometry>
        </mxCell>
        <mxCell id="tlXR0ImK2c8rhLXpDkq9-118" value="" style="shape=link;html=1;rounded=0;" edge="1" parent="1">
          <mxGeometry width="100" relative="1" as="geometry">
            <mxPoint x="420.5" y="522" as="sourcePoint" />
            <mxPoint x="340.5" y="522" as="targetPoint" />
          </mxGeometry>
        </mxCell>
        <mxCell id="tlXR0ImK2c8rhLXpDkq9-119" value="" style="shape=link;html=1;rounded=0;" edge="1" parent="1">
          <mxGeometry width="100" relative="1" as="geometry">
            <mxPoint x="420.5" y="567" as="sourcePoint" />
            <mxPoint x="340.5" y="567" as="targetPoint" />
          </mxGeometry>
        </mxCell>
        <mxCell id="tlXR0ImK2c8rhLXpDkq9-120" value="" style="shape=link;html=1;rounded=0;" edge="1" parent="1">
          <mxGeometry width="100" relative="1" as="geometry">
            <mxPoint x="421" y="652" as="sourcePoint" />
            <mxPoint x="341" y="652" as="targetPoint" />
          </mxGeometry>
        </mxCell>
        <mxCell id="tlXR0ImK2c8rhLXpDkq9-121" value="" style="shape=link;html=1;rounded=0;" edge="1" parent="1">
          <mxGeometry width="100" relative="1" as="geometry">
            <mxPoint x="420.5" y="612" as="sourcePoint" />
            <mxPoint x="340.5" y="612" as="targetPoint" />
          </mxGeometry>
        </mxCell>
        <mxCell id="tlXR0ImK2c8rhLXpDkq9-124" value="箱子&lt;br&gt;（可拖拉坐）" style="text;html=1;align=center;verticalAlign=middle;resizable=0;points=[];autosize=1;strokeColor=none;fillColor=none;" vertex="1" parent="1">
          <mxGeometry x="333" y="663" width="95" height="45" as="geometry" />
        </mxCell>
      </root>
    </mxGraphModel>
  </diagram>
</mxfile>
